<svg width="162" height="72" viewBox="0 0 162 72" fill="none" xmlns="http://www.w3.org/2000/svg">
<path d="M43.352 22.216C42.488 21.496 41.192 21.592 40.424 22.456L32.744 31.576C31.688 32.728 31.208 33.112 30.488 33.112C30.584 32.632 30.824 31.864 30.968 31.288L33.032 23.848C34.376 19.096 33.32 16.264 32.168 14.728C30.68 12.712 28.232 11.896 25.88 11.896C24.296 11.896 22.808 12.232 21.464 12.904L24.056 3.496C24.392 2.392 23.72 1.288 22.616 0.951998C21.56 0.663999 20.408 1.288 20.072 2.392C19.352 5.128 18.584 7.864 17.816 10.648C17.384 12.184 17.336 12.664 16.952 13.768C15.992 16.456 12.296 21.064 10.232 23.512L8.12 26.008C8.12 26.008 7.688 26.44 7.688 27.208C7.688 28.408 8.648 29.368 9.704 29.368C10.616 29.368 11.288 28.6 11.288 28.6L13.592 25.864L11.192 34.36C10.904 35.464 11.528 36.616 12.632 36.904C12.824 37 13.016 37 13.208 37C14.12 37 14.936 36.424 15.176 35.512L18.296 24.28C19.448 20.056 21.608 16.024 25.88 16.024C26.84 16.024 28.136 16.264 28.856 17.224C29.672 18.328 29.768 20.248 29.048 22.696C29.048 22.696 27.272 29.08 27.032 30.04C26.696 31.336 26.312 32.44 26.312 33.88C26.312 35.32 27.32 37.336 30.488 37.336C33.176 37.336 35.048 35.224 36.008 34.072L43.544 25.096C44.264 24.232 44.216 22.984 43.352 22.216ZM65.0157 14.968C65.3518 13.912 64.6798 12.808 63.5758 12.472C62.4238 12.136 61.4158 12.664 61.1758 13.528C61.0798 13.864 60.9838 14.152 60.9358 14.296C59.1118 12.712 57.1918 11.896 54.8878 11.896C52.6318 11.896 50.4718 12.424 48.5998 13.72C46.9678 14.824 45.5758 16.408 42.9358 19.528L37.3677 26.152C36.6477 27.016 36.6957 28.312 37.5597 29.08C37.9437 29.416 38.4237 29.56 38.9037 29.56C39.4797 29.56 40.0557 29.32 40.4878 28.84L42.5518 26.344C41.8318 29.416 41.8798 32.104 43.5117 34.264C44.9998 36.184 47.4478 37.384 50.2798 37.384C52.3438 37.384 54.3118 36.76 56.0398 35.56C56.5678 36.568 57.7198 37.384 59.4478 37.384C62.7118 37.384 64.5837 35.224 67.0798 32.344L73.6558 24.52C74.4238 23.656 74.3758 22.312 73.5118 21.592C72.6478 20.824 71.2078 21.016 70.4878 21.928L63.3358 30.424C62.4238 31.48 61.2238 33.112 60.0718 33.112L65.0157 14.968ZM50.4718 33.256C49.4158 33.256 47.7838 32.968 46.9678 31.864C46.1518 30.76 46.0078 28.648 46.6318 26.584C47.0158 25.096 47.3518 23.992 47.7838 22.504C48.7438 19.192 50.9518 16.12 54.6958 16.024C56.2798 16.024 57.6238 16.6 58.3918 17.608C59.0638 18.52 59.2558 19.72 58.9678 21.16L57.3838 26.872C55.7998 32.344 53.3038 33.256 50.4718 33.256ZM99.6819 19.672C98.8179 18.904 97.4739 19 96.7539 19.864L92.1459 25.336C92.3379 24.76 92.4819 24.184 92.6739 23.464C93.1059 21.88 93.2019 20.392 93.0579 19C92.9139 17.416 92.3859 16.072 91.5219 14.92C90.4659 13.576 88.4019 11.944 84.5619 11.944C83.5059 11.944 82.0179 12.136 80.4339 12.856C81.8739 7.672 83.0259 3.592 83.0259 3.496C83.3619 2.392 82.6899 1.24 81.5859 0.951998C80.5299 0.615999 79.3779 1.288 79.0419 2.392C79.0419 2.488 77.5059 7.912 75.7299 14.248C74.6739 16.984 71.1699 21.064 69.2019 23.416L66.8019 26.248C66.0339 27.112 66.1299 28.408 67.0419 29.176C67.8099 29.848 69.2499 29.656 69.9219 28.936L72.5139 25.816C71.2179 30.424 70.2099 34.12 70.0179 34.744C69.7299 35.848 70.3539 37 71.4579 37.288C71.6499 37.336 71.8419 37.384 72.0339 37.384C72.9459 37.384 73.7619 36.808 74.0019 35.896C74.0499 35.704 74.1459 35.32 74.3379 34.792C75.9699 36.52 78.1779 37.384 80.3859 37.384C81.3459 37.384 81.9219 37.336 82.4979 37.24C86.4819 36.664 89.7459 34.552 94.3059 29.128L99.8739 22.504C100.642 21.592 100.546 20.392 99.6819 19.672ZM77.2659 31.816C76.3059 30.616 76.1139 28.552 76.6899 26.392C76.9299 25.48 77.4099 23.8 77.7459 22.648C78.4659 20.248 79.5219 18.472 80.9619 17.368C82.3059 16.312 83.6499 16.072 84.5619 16.072C88.5939 16.072 89.5539 19 88.6899 22.408L87.4899 26.776C86.4339 29.896 84.6579 33.256 80.6259 33.256C79.0419 33.208 77.9379 32.728 77.2659 31.816ZM96.9335 32.536C96.8375 32.92 96.7415 33.64 96.7415 34.024C96.7415 35.608 97.9415 37.384 100.486 37.384C103.75 37.384 105.718 35.224 108.166 32.296L114.646 24.568C115.366 23.704 115.414 22.312 114.55 21.592C113.686 20.824 112.246 21.016 111.526 21.928L104.374 30.424C103.462 31.48 102.262 33.112 101.11 33.112L106.006 15.304C106.15 14.728 106.198 14.44 106.198 14.248C106.198 13.192 105.286 12.28 104.086 12.28C103.51 12.28 102.886 12.52 102.502 13L91.9895 25.48C91.2695 26.344 91.3655 27.736 92.2295 28.408C93.0935 29.08 94.2935 29.08 95.0615 28.216L99.5735 22.84C98.3735 27.208 96.9335 32.536 96.9335 32.536ZM106.198 8.632C107.686 8.632 108.934 7.384 108.934 5.896C108.934 4.36 107.686 3.16 106.198 3.16C104.662 3.16 103.462 4.36 103.462 5.896C103.462 7.384 104.662 8.632 106.198 8.632ZM126.586 16.024C127.738 16.024 128.65 15.112 128.65 13.96C128.65 12.856 127.738 11.896 126.586 11.896H123.034L124.186 7.72C124.522 6.616 123.85 5.512 122.746 5.176C121.642 4.888 120.538 5.56 120.202 6.616L118.81 11.656C117.946 14.2 116.986 15.4 113.962 19L108.345 25.672C107.625 26.536 107.673 27.832 108.537 28.6C108.921 28.936 109.401 29.08 109.881 29.08C110.457 29.08 111.034 28.84 111.466 28.36L115.546 23.512L113.77 30.04C113.242 31.912 113.578 33.784 114.634 35.224C115.642 36.568 117.226 37.336 118.954 37.336C121.642 37.336 123.273 35.56 124.426 34.264L133.258 23.752C133.978 22.888 133.93 21.592 133.066 20.824C132.202 20.104 130.906 20.248 130.138 21.112L121.162 31.768C120.346 32.68 119.674 33.208 118.954 33.208C118.522 33.208 118.186 33.016 117.946 32.728C117.658 32.344 117.562 31.768 117.754 31.144L121.882 16.024H126.586ZM135.995 37.384C137.915 37.384 139.787 37.048 142.043 35.704C144.059 34.408 146.219 32.296 149.483 28.6L154.283 22.888C155.003 22.024 154.955 20.776 154.091 20.008C153.227 19.288 151.883 19.384 151.163 20.248L146.459 25.816L144.347 28.216C144.155 26.632 143.483 24.904 141.563 21.64C140.891 20.44 139.547 18.52 139.355 17.512C139.307 17.224 139.211 16.696 140.075 15.688C140.843 14.824 140.699 13.528 139.835 12.76C139.067 12.088 137.675 12.136 137.003 12.952L126.107 25.912C125.387 26.776 125.435 28.12 126.347 28.84C127.211 29.608 128.459 29.464 129.227 28.552L136.091 20.392C136.427 21.112 136.811 21.832 138.011 23.752C140.075 27.256 140.267 28.216 140.267 29.32C140.267 30.28 139.835 31.24 139.115 31.96C138.587 32.488 137.675 33.256 135.995 33.256C134.459 33.256 133.163 32.536 132.779 32.2C131.867 31.48 130.571 31.672 129.899 32.584C129.179 33.496 129.371 34.792 130.235 35.464C131.147 36.184 133.595 37.384 135.995 37.384Z" fill="#2B8D12"/>
<path d="M6.71875 60.3496H3.11523L3.0957 58.8359H6.36719C6.90755 58.8359 7.37956 58.7448 7.7832 58.5625C8.18685 58.3802 8.49935 58.1198 8.7207 57.7812C8.94857 57.4362 9.0625 57.026 9.0625 56.5508C9.0625 56.0299 8.96159 55.6068 8.75977 55.2812C8.56445 54.9492 8.26172 54.7083 7.85156 54.5586C7.44792 54.4023 6.93359 54.3242 6.30859 54.3242H3.53516V67H1.65039V52.7812H6.30859C7.03776 52.7812 7.6888 52.8561 8.26172 53.0059C8.83464 53.1491 9.31966 53.377 9.7168 53.6895C10.1204 53.9954 10.4264 54.3861 10.6348 54.8613C10.8431 55.3366 10.9473 55.9062 10.9473 56.5703C10.9473 57.1562 10.7975 57.6868 10.498 58.1621C10.1986 58.6309 9.7819 59.015 9.24805 59.3145C8.7207 59.6139 8.10221 59.806 7.39258 59.8906L6.71875 60.3496ZM6.63086 67H2.37305L3.4375 65.4668H6.63086C7.22982 65.4668 7.73763 65.3626 8.1543 65.1543C8.57747 64.946 8.89974 64.653 9.12109 64.2754C9.34245 63.8913 9.45312 63.4388 9.45312 62.918C9.45312 62.3906 9.35872 61.9349 9.16992 61.5508C8.98112 61.1667 8.6849 60.8704 8.28125 60.6621C7.8776 60.4538 7.35677 60.3496 6.71875 60.3496H4.0332L4.05273 58.8359H7.72461L8.125 59.3828C8.80859 59.4414 9.38802 59.6367 9.86328 59.9688C10.3385 60.2943 10.6999 60.7109 10.9473 61.2188C11.2012 61.7266 11.3281 62.2865 11.3281 62.8984C11.3281 63.7839 11.1328 64.5326 10.7422 65.1445C10.3581 65.75 9.81445 66.2122 9.11133 66.5312C8.4082 66.8438 7.58138 67 6.63086 67ZM20.3027 64.5586V56.4336H22.1191V67H20.3906L20.3027 64.5586ZM20.6445 62.332L21.3965 62.3125C21.3965 63.0156 21.3216 63.6667 21.1719 64.2656C21.0286 64.8581 20.7943 65.3724 20.4688 65.8086C20.1432 66.2448 19.7168 66.5866 19.1895 66.834C18.6621 67.0749 18.0208 67.1953 17.2656 67.1953C16.7513 67.1953 16.2793 67.1204 15.8496 66.9707C15.4264 66.821 15.0618 66.5898 14.7559 66.2773C14.4499 65.9648 14.2122 65.5579 14.043 65.0566C13.8802 64.5553 13.7988 63.9531 13.7988 63.25V56.4336H15.6055V63.2695C15.6055 63.7448 15.6576 64.1387 15.7617 64.4512C15.8724 64.7572 16.0189 65.0013 16.2012 65.1836C16.39 65.3594 16.5983 65.4831 16.8262 65.5547C17.0605 65.6263 17.3014 65.6621 17.5488 65.6621C18.3171 65.6621 18.9258 65.5156 19.375 65.2227C19.8242 64.9232 20.1465 64.5228 20.3418 64.0215C20.5436 63.5137 20.6445 62.9505 20.6445 62.332ZM26.8359 56.4336V67H25.0195V56.4336H26.8359ZM24.8828 53.6309C24.8828 53.3379 24.9707 53.0905 25.1465 52.8887C25.3288 52.6868 25.5957 52.5859 25.9473 52.5859C26.2923 52.5859 26.556 52.6868 26.7383 52.8887C26.9271 53.0905 27.0215 53.3379 27.0215 53.6309C27.0215 53.9108 26.9271 54.1517 26.7383 54.3535C26.556 54.5488 26.2923 54.6465 25.9473 54.6465C25.5957 54.6465 25.3288 54.5488 25.1465 54.3535C24.9707 54.1517 24.8828 53.9108 24.8828 53.6309ZM31.6992 52V67H29.8828V52H31.6992ZM41.2598 64.9492V52H43.0762V67H41.416L41.2598 64.9492ZM34.1504 61.834V61.6289C34.1504 60.8216 34.248 60.0892 34.4434 59.4316C34.6452 58.7676 34.9284 58.1979 35.293 57.7227C35.6641 57.2474 36.1035 56.8828 36.6113 56.6289C37.1257 56.3685 37.6986 56.2383 38.3301 56.2383C38.9941 56.2383 39.5736 56.3555 40.0684 56.5898C40.5697 56.8177 40.9928 57.153 41.3379 57.5957C41.6895 58.0319 41.9661 58.5592 42.168 59.1777C42.3698 59.7962 42.5098 60.4961 42.5879 61.2773V62.1758C42.5163 62.9505 42.3763 63.6471 42.168 64.2656C41.9661 64.8841 41.6895 65.4115 41.3379 65.8477C40.9928 66.2839 40.5697 66.6191 40.0684 66.8535C39.5671 67.0814 38.9811 67.1953 38.3105 67.1953C37.6921 67.1953 37.1257 67.0618 36.6113 66.7949C36.1035 66.528 35.6641 66.1536 35.293 65.6719C34.9284 65.1901 34.6452 64.6237 34.4434 63.9727C34.248 63.3151 34.1504 62.6022 34.1504 61.834ZM35.9668 61.6289V61.834C35.9668 62.3613 36.0189 62.8561 36.123 63.3184C36.2337 63.7806 36.403 64.1875 36.6309 64.5391C36.8587 64.8906 37.1484 65.1673 37.5 65.3691C37.8516 65.5645 38.2715 65.6621 38.7598 65.6621C39.3587 65.6621 39.8503 65.5352 40.2344 65.2812C40.625 65.0273 40.9375 64.6921 41.1719 64.2754C41.4062 63.8587 41.5885 63.4062 41.7188 62.918V60.5645C41.6406 60.2064 41.5267 59.8613 41.377 59.5293C41.2337 59.1908 41.0449 58.8913 40.8105 58.6309C40.5827 58.3639 40.2995 58.1523 39.9609 57.9961C39.6289 57.8398 39.235 57.7617 38.7793 57.7617C38.2845 57.7617 37.8581 57.8659 37.5 58.0742C37.1484 58.276 36.8587 58.556 36.6309 58.9141C36.403 59.2656 36.2337 59.6758 36.123 60.1445C36.0189 60.6068 35.9668 61.1016 35.9668 61.6289ZM50.8398 52H52.6562V64.9492L52.5 67H50.8398V52ZM59.7949 61.6289V61.834C59.7949 62.6022 59.7038 63.3151 59.5215 63.9727C59.3392 64.6237 59.0723 65.1901 58.7207 65.6719C58.3691 66.1536 57.9395 66.528 57.4316 66.7949C56.9238 67.0618 56.3411 67.1953 55.6836 67.1953C55.013 67.1953 54.4238 67.0814 53.916 66.8535C53.4147 66.6191 52.9915 66.2839 52.6465 65.8477C52.3014 65.4115 52.0247 64.8841 51.8164 64.2656C51.6146 63.6471 51.4746 62.9505 51.3965 62.1758V61.2773C51.4746 60.4961 51.6146 59.7962 51.8164 59.1777C52.0247 58.5592 52.3014 58.0319 52.6465 57.5957C52.9915 57.153 53.4147 56.8177 53.916 56.5898C54.4173 56.3555 55 56.2383 55.6641 56.2383C56.3281 56.2383 56.9173 56.3685 57.4316 56.6289C57.946 56.8828 58.3757 57.2474 58.7207 57.7227C59.0723 58.1979 59.3392 58.7676 59.5215 59.4316C59.7038 60.0892 59.7949 60.8216 59.7949 61.6289ZM57.9785 61.834V61.6289C57.9785 61.1016 57.9297 60.6068 57.832 60.1445C57.7344 59.6758 57.5781 59.2656 57.3633 58.9141C57.1484 58.556 56.8652 58.276 56.5137 58.0742C56.1621 57.8659 55.7292 57.7617 55.2148 57.7617C54.7591 57.7617 54.362 57.8398 54.0234 57.9961C53.6914 58.1523 53.4082 58.3639 53.1738 58.6309C52.9395 58.8913 52.7474 59.1908 52.5977 59.5293C52.4544 59.8613 52.347 60.2064 52.2754 60.5645V62.918C52.3796 63.3737 52.5488 63.8132 52.7832 64.2363C53.0241 64.653 53.3431 64.9948 53.7402 65.2617C54.1439 65.5286 54.6419 65.6621 55.2344 65.6621C55.7227 65.6621 56.1393 65.5645 56.4844 65.3691C56.8359 65.1673 57.1191 64.8906 57.334 64.5391C57.5553 64.1875 57.7181 63.7806 57.8223 63.3184C57.9264 62.8561 57.9785 62.3613 57.9785 61.834ZM66.4648 67.1953C65.7292 67.1953 65.0618 67.0716 64.4629 66.8242C63.8704 66.5703 63.3594 66.2155 62.9297 65.7598C62.5065 65.304 62.181 64.7637 61.9531 64.1387C61.7253 63.5137 61.6113 62.8301 61.6113 62.0879V61.6777C61.6113 60.8184 61.7383 60.0534 61.9922 59.3828C62.2461 58.7057 62.5911 58.1328 63.0273 57.6641C63.4635 57.1953 63.9583 56.8405 64.5117 56.5996C65.0651 56.3587 65.638 56.2383 66.2305 56.2383C66.9857 56.2383 67.6367 56.3685 68.1836 56.6289C68.737 56.8893 69.1895 57.2539 69.541 57.7227C69.8926 58.1849 70.153 58.7318 70.3223 59.3633C70.4915 59.9883 70.5762 60.6719 70.5762 61.4141V62.2246H62.6855V60.75H68.7695V60.6133C68.7435 60.1445 68.6458 59.6888 68.4766 59.2461C68.3138 58.8034 68.0534 58.4388 67.6953 58.1523C67.3372 57.8659 66.849 57.7227 66.2305 57.7227C65.8203 57.7227 65.4427 57.8105 65.0977 57.9863C64.7526 58.1556 64.4564 58.4095 64.209 58.748C63.9616 59.0866 63.7695 59.5 63.6328 59.9883C63.4961 60.4766 63.4277 61.0397 63.4277 61.6777V62.0879C63.4277 62.5892 63.4961 63.0612 63.6328 63.5039C63.776 63.9401 63.9811 64.3242 64.248 64.6562C64.5215 64.9883 64.8503 65.2487 65.2344 65.4375C65.625 65.6263 66.0677 65.7207 66.5625 65.7207C67.2005 65.7207 67.7409 65.5905 68.1836 65.3301C68.6263 65.0697 69.0137 64.7214 69.3457 64.2852L70.4395 65.1543C70.2116 65.4993 69.9219 65.8281 69.5703 66.1406C69.2188 66.4531 68.7858 66.707 68.2715 66.9023C67.7637 67.0977 67.1615 67.1953 66.4648 67.1953ZM77.1094 56.4336V57.8203H71.3965V56.4336H77.1094ZM73.3301 53.8652H75.1367V64.3828C75.1367 64.7409 75.1921 65.0111 75.3027 65.1934C75.4134 65.3757 75.5566 65.4961 75.7324 65.5547C75.9082 65.6133 76.097 65.6426 76.2988 65.6426C76.4486 65.6426 76.6048 65.6296 76.7676 65.6035C76.9368 65.571 77.0638 65.5449 77.1484 65.5254L77.1582 67C77.015 67.0456 76.8262 67.0879 76.5918 67.127C76.3639 67.1725 76.0872 67.1953 75.7617 67.1953C75.319 67.1953 74.9121 67.1074 74.541 66.9316C74.1699 66.7559 73.8737 66.4629 73.6523 66.0527C73.4375 65.6361 73.3301 65.0762 73.3301 64.373V53.8652ZM83.6523 56.4336V57.8203H77.9395V56.4336H83.6523ZM79.873 53.8652H81.6797V64.3828C81.6797 64.7409 81.735 65.0111 81.8457 65.1934C81.9564 65.3757 82.0996 65.4961 82.2754 65.5547C82.4512 65.6133 82.64 65.6426 82.8418 65.6426C82.9915 65.6426 83.1478 65.6296 83.3105 65.6035C83.4798 65.571 83.6068 65.5449 83.6914 65.5254L83.7012 67C83.5579 67.0456 83.3691 67.0879 83.1348 67.127C82.9069 67.1725 82.6302 67.1953 82.3047 67.1953C81.862 67.1953 81.4551 67.1074 81.084 66.9316C80.7129 66.7559 80.4167 66.4629 80.1953 66.0527C79.9805 65.6361 79.873 65.0762 79.873 64.373V53.8652ZM90.1562 67.1953C89.4206 67.1953 88.7533 67.0716 88.1543 66.8242C87.5618 66.5703 87.0508 66.2155 86.6211 65.7598C86.1979 65.304 85.8724 64.7637 85.6445 64.1387C85.4167 63.5137 85.3027 62.8301 85.3027 62.0879V61.6777C85.3027 60.8184 85.4297 60.0534 85.6836 59.3828C85.9375 58.7057 86.2826 58.1328 86.7188 57.6641C87.1549 57.1953 87.6497 56.8405 88.2031 56.5996C88.7565 56.3587 89.3294 56.2383 89.9219 56.2383C90.6771 56.2383 91.3281 56.3685 91.875 56.6289C92.4284 56.8893 92.8809 57.2539 93.2324 57.7227C93.584 58.1849 93.8444 58.7318 94.0137 59.3633C94.1829 59.9883 94.2676 60.6719 94.2676 61.4141V62.2246H86.377V60.75H92.4609V60.6133C92.4349 60.1445 92.3372 59.6888 92.168 59.2461C92.0052 58.8034 91.7448 58.4388 91.3867 58.1523C91.0286 57.8659 90.5404 57.7227 89.9219 57.7227C89.5117 57.7227 89.1341 57.8105 88.7891 57.9863C88.444 58.1556 88.1478 58.4095 87.9004 58.748C87.653 59.0866 87.4609 59.5 87.3242 59.9883C87.1875 60.4766 87.1191 61.0397 87.1191 61.6777V62.0879C87.1191 62.5892 87.1875 63.0612 87.3242 63.5039C87.4674 63.9401 87.6725 64.3242 87.9395 64.6562C88.2129 64.9883 88.5417 65.2487 88.9258 65.4375C89.3164 65.6263 89.7591 65.7207 90.2539 65.7207C90.8919 65.7207 91.4323 65.5905 91.875 65.3301C92.3177 65.0697 92.7051 64.7214 93.0371 64.2852L94.1309 65.1543C93.903 65.4993 93.6133 65.8281 93.2617 66.1406C92.9102 66.4531 92.4772 66.707 91.9629 66.9023C91.4551 67.0977 90.8529 67.1953 90.1562 67.1953ZM98.1836 58.0938V67H96.377V56.4336H98.1348L98.1836 58.0938ZM101.484 56.375L101.475 58.0547C101.325 58.0221 101.182 58.0026 101.045 57.9961C100.915 57.9831 100.765 57.9766 100.596 57.9766C100.179 57.9766 99.8112 58.0417 99.4922 58.1719C99.1732 58.3021 98.903 58.4844 98.6816 58.7188C98.4603 58.9531 98.2845 59.2331 98.1543 59.5586C98.0306 59.8776 97.9492 60.2292 97.9102 60.6133L97.4023 60.9062C97.4023 60.2682 97.4642 59.6693 97.5879 59.1094C97.7181 58.5495 97.9167 58.0547 98.1836 57.625C98.4505 57.1888 98.7891 56.8503 99.1992 56.6094C99.6159 56.362 100.111 56.2383 100.684 56.2383C100.814 56.2383 100.964 56.2546 101.133 56.2871C101.302 56.3132 101.419 56.3424 101.484 56.375ZM109.922 52V67H108.115V52H109.922ZM109.492 61.3164L108.74 61.2871C108.747 60.5645 108.854 59.8971 109.062 59.2852C109.271 58.6667 109.564 58.1296 109.941 57.6738C110.319 57.2181 110.768 56.8665 111.289 56.6191C111.816 56.3652 112.399 56.2383 113.037 56.2383C113.558 56.2383 114.027 56.3099 114.443 56.4531C114.86 56.5898 115.215 56.8112 115.508 57.1172C115.807 57.4232 116.035 57.8203 116.191 58.3086C116.348 58.7904 116.426 59.3796 116.426 60.0762V67H114.609V60.0566C114.609 59.5033 114.528 59.0605 114.365 58.7285C114.202 58.39 113.965 58.1458 113.652 57.9961C113.34 57.8398 112.956 57.7617 112.5 57.7617C112.051 57.7617 111.641 57.8561 111.27 58.0449C110.905 58.2337 110.589 58.4941 110.322 58.8262C110.062 59.1582 109.857 59.5391 109.707 59.9688C109.564 60.3919 109.492 60.8411 109.492 61.3164ZM125.361 65.1934V59.7539C125.361 59.3372 125.277 58.9759 125.107 58.6699C124.945 58.3574 124.697 58.1165 124.365 57.9473C124.033 57.778 123.623 57.6934 123.135 57.6934C122.679 57.6934 122.279 57.7715 121.934 57.9277C121.595 58.084 121.328 58.2891 121.133 58.543C120.944 58.7969 120.85 59.0703 120.85 59.3633H119.043C119.043 58.9857 119.141 58.6113 119.336 58.2402C119.531 57.8691 119.811 57.5339 120.176 57.2344C120.547 56.9284 120.99 56.6875 121.504 56.5117C122.025 56.3294 122.604 56.2383 123.242 56.2383C124.01 56.2383 124.688 56.3685 125.273 56.6289C125.866 56.8893 126.328 57.2832 126.66 57.8105C126.999 58.3314 127.168 58.9857 127.168 59.7734V64.6953C127.168 65.0469 127.197 65.4212 127.256 65.8184C127.321 66.2155 127.415 66.5573 127.539 66.8438V67H125.654C125.563 66.7917 125.492 66.515 125.439 66.1699C125.387 65.8184 125.361 65.4928 125.361 65.1934ZM125.674 60.5938L125.693 61.8633H123.867C123.353 61.8633 122.894 61.9056 122.49 61.9902C122.087 62.0684 121.748 62.1888 121.475 62.3516C121.201 62.5143 120.993 62.7194 120.85 62.9668C120.706 63.2077 120.635 63.4909 120.635 63.8164C120.635 64.1484 120.71 64.4512 120.859 64.7246C121.009 64.998 121.234 65.2161 121.533 65.3789C121.839 65.5352 122.214 65.6133 122.656 65.6133C123.21 65.6133 123.698 65.4961 124.121 65.2617C124.544 65.0273 124.88 64.7409 125.127 64.4023C125.381 64.0638 125.518 63.735 125.537 63.416L126.309 64.2852C126.263 64.5586 126.139 64.8613 125.938 65.1934C125.736 65.5254 125.465 65.8444 125.127 66.1504C124.795 66.4499 124.398 66.7005 123.936 66.9023C123.48 67.0977 122.965 67.1953 122.393 67.1953C121.676 67.1953 121.048 67.0553 120.508 66.7754C119.974 66.4954 119.557 66.1211 119.258 65.6523C118.965 65.1771 118.818 64.6465 118.818 64.0605C118.818 63.4941 118.929 62.9961 119.15 62.5664C119.372 62.1302 119.691 61.7689 120.107 61.4824C120.524 61.1895 121.025 60.9681 121.611 60.8184C122.197 60.6686 122.852 60.5938 123.574 60.5938H125.674ZM130 52H131.816V64.9492L131.66 67H130V52ZM138.955 61.6289V61.834C138.955 62.6022 138.864 63.3151 138.682 63.9727C138.499 64.6237 138.232 65.1901 137.881 65.6719C137.529 66.1536 137.1 66.528 136.592 66.7949C136.084 67.0618 135.501 67.1953 134.844 67.1953C134.173 67.1953 133.584 67.0814 133.076 66.8535C132.575 66.6191 132.152 66.2839 131.807 65.8477C131.462 65.4115 131.185 64.8841 130.977 64.2656C130.775 63.6471 130.635 62.9505 130.557 62.1758V61.2773C130.635 60.4961 130.775 59.7962 130.977 59.1777C131.185 58.5592 131.462 58.0319 131.807 57.5957C132.152 57.153 132.575 56.8177 133.076 56.5898C133.577 56.3555 134.16 56.2383 134.824 56.2383C135.488 56.2383 136.077 56.3685 136.592 56.6289C137.106 56.8828 137.536 57.2474 137.881 57.7227C138.232 58.1979 138.499 58.7676 138.682 59.4316C138.864 60.0892 138.955 60.8216 138.955 61.6289ZM137.139 61.834V61.6289C137.139 61.1016 137.09 60.6068 136.992 60.1445C136.895 59.6758 136.738 59.2656 136.523 58.9141C136.309 58.556 136.025 58.276 135.674 58.0742C135.322 57.8659 134.889 57.7617 134.375 57.7617C133.919 57.7617 133.522 57.8398 133.184 57.9961C132.852 58.1523 132.568 58.3639 132.334 58.6309C132.1 58.8913 131.908 59.1908 131.758 59.5293C131.615 59.8613 131.507 60.2064 131.436 60.5645V62.918C131.54 63.3737 131.709 63.8132 131.943 64.2363C132.184 64.653 132.503 64.9948 132.9 65.2617C133.304 65.5286 133.802 65.6621 134.395 65.6621C134.883 65.6621 135.299 65.5645 135.645 65.3691C135.996 65.1673 136.279 64.8906 136.494 64.5391C136.715 64.1875 136.878 63.7806 136.982 63.3184C137.087 62.8561 137.139 62.3613 137.139 61.834ZM143.203 56.4336V67H141.387V56.4336H143.203ZM141.25 53.6309C141.25 53.3379 141.338 53.0905 141.514 52.8887C141.696 52.6868 141.963 52.5859 142.314 52.5859C142.66 52.5859 142.923 52.6868 143.105 52.8887C143.294 53.0905 143.389 53.3379 143.389 53.6309C143.389 53.9108 143.294 54.1517 143.105 54.3535C142.923 54.5488 142.66 54.6465 142.314 54.6465C141.963 54.6465 141.696 54.5488 141.514 54.3535C141.338 54.1517 141.25 53.9108 141.25 53.6309ZM150.527 56.4336V57.8203H144.814V56.4336H150.527ZM146.748 53.8652H148.555V64.3828C148.555 64.7409 148.61 65.0111 148.721 65.1934C148.831 65.3757 148.975 65.4961 149.15 65.5547C149.326 65.6133 149.515 65.6426 149.717 65.6426C149.867 65.6426 150.023 65.6296 150.186 65.6035C150.355 65.571 150.482 65.5449 150.566 65.5254L150.576 67C150.433 67.0456 150.244 67.0879 150.01 67.127C149.782 67.1725 149.505 67.1953 149.18 67.1953C148.737 67.1953 148.33 67.1074 147.959 66.9316C147.588 66.7559 147.292 66.4629 147.07 66.0527C146.855 65.6361 146.748 65.0762 146.748 64.373V53.8652ZM158.799 64.1973C158.799 63.9368 158.74 63.696 158.623 63.4746C158.512 63.2467 158.281 63.0417 157.93 62.8594C157.585 62.6706 157.064 62.5078 156.367 62.3711C155.781 62.2474 155.251 62.1009 154.775 61.9316C154.307 61.7624 153.906 61.5573 153.574 61.3164C153.249 61.0755 152.998 60.7923 152.822 60.4668C152.646 60.1413 152.559 59.7604 152.559 59.3242C152.559 58.9076 152.65 58.5137 152.832 58.1426C153.021 57.7715 153.285 57.4427 153.623 57.1562C153.968 56.8698 154.382 56.6452 154.863 56.4824C155.345 56.3197 155.882 56.2383 156.475 56.2383C157.321 56.2383 158.044 56.388 158.643 56.6875C159.242 56.987 159.701 57.3874 160.02 57.8887C160.339 58.3835 160.498 58.9336 160.498 59.5391H158.691C158.691 59.2461 158.604 58.9629 158.428 58.6895C158.258 58.4095 158.008 58.1784 157.676 57.9961C157.35 57.8138 156.95 57.7227 156.475 57.7227C155.973 57.7227 155.566 57.8008 155.254 57.957C154.948 58.1068 154.723 58.2988 154.58 58.5332C154.443 58.7676 154.375 59.015 154.375 59.2754C154.375 59.4707 154.408 59.6465 154.473 59.8027C154.544 59.9525 154.668 60.0924 154.844 60.2227C155.02 60.3464 155.267 60.4635 155.586 60.5742C155.905 60.6849 156.312 60.7956 156.807 60.9062C157.673 61.1016 158.385 61.3359 158.945 61.6094C159.505 61.8828 159.922 62.2181 160.195 62.6152C160.469 63.0124 160.605 63.4941 160.605 64.0605C160.605 64.5228 160.508 64.946 160.312 65.3301C160.124 65.7142 159.847 66.0462 159.482 66.3262C159.124 66.5996 158.695 66.8145 158.193 66.9707C157.699 67.1204 157.142 67.1953 156.523 67.1953C155.592 67.1953 154.805 67.0293 154.16 66.6973C153.516 66.3652 153.027 65.9355 152.695 65.4082C152.363 64.8809 152.197 64.3242 152.197 63.7383H154.014C154.04 64.2331 154.183 64.627 154.443 64.9199C154.704 65.2064 155.023 65.4115 155.4 65.5352C155.778 65.6523 156.152 65.7109 156.523 65.7109C157.018 65.7109 157.432 65.6458 157.764 65.5156C158.102 65.3854 158.359 65.2064 158.535 64.9785C158.711 64.7507 158.799 64.4902 158.799 64.1973Z" fill="#3F3F3F"/>
</svg>
